<?xml version="1.0" standalone="no"?>
<!DOCTYPE svg PUBLIC "-//W3C//DTD SVG 20010904//EN"
 "http://www.w3.org/TR/2001/REC-SVG-20010904/DTD/svg10.dtd">
<svg version="1.0" xmlns="http://www.w3.org/2000/svg"
 width="1920.000000pt" height="1920.000000pt" viewBox="0 0 1920.000000 1920.000000"
 preserveAspectRatio="xMidYMid meet">
<metadata>
Created by potrace 1.14, written by Peter Selinger 2001-2017
</metadata>
<g transform="translate(0.000000,1920.000000) scale(0.100000,-0.100000)"
fill="#000000" stroke="none">
<path d="M10337 12764 c-1 -1 -92 -4 -202 -8 -110 -4 -213 -8 -230 -10 -16 -2
-63 -7 -102 -10 -40 -4 -80 -9 -90 -10 -10 -2 -47 -7 -83 -11 -69 -7 -231 -36
-315 -55 -27 -6 -58 -13 -67 -15 -35 -7 -176 -48 -253 -72 -647 -208 -1115
-594 -1386 -1145 -45 -90 -114 -259 -125 -303 -4 -16 -11 -36 -17 -42 -5 -7
-7 -13 -4 -13 4 0 0 -19 -9 -41 -14 -41 -22 -73 -29 -114 -2 -11 -6 -32 -10
-47 -5 -20 -3 -28 6 -29 61 -4 1213 -3 1219 1 4 3 24 44 43 91 137 331 359
550 707 698 155 66 421 129 617 147 37 3 79 8 93 12 14 3 583 7 1265 9 682 2
1246 6 1253 8 7 2 17 15 22 27 6 13 20 39 31 58 11 19 102 177 201 350 99 173
184 322 188 330 5 8 32 54 59 103 29 49 45 87 38 87 -31 2 -2819 5 -2820 4z"/>
<path d="M5750 10423 c0 -6 584 -949 591 -953 4 -3 1340 -5 2968 -5 l2961 0 1
-40 c1 -50 1 -976 0 -1026 l-1 -36 -1087 2 c-1104 2 -1153 3 -1370 40 -228 39
-421 106 -598 207 -146 83 -315 238 -403 371 l-45 67 -643 0 c-354 0 -644 -2
-644 -5 0 -8 56 -165 75 -210 36 -88 128 -261 180 -342 85 -129 157 -217 280
-339 206 -204 446 -365 720 -483 55 -23 109 -46 120 -51 72 -31 378 -119 465
-134 19 -3 46 -8 60 -11 14 -3 50 -9 80 -15 30 -5 69 -12 85 -15 17 -3 62 -7
100 -10 39 -3 77 -8 85 -10 61 -16 438 -20 1975 -20 l1750 0 1 1495 c1 822 0
1502 -2 1510 -3 13 -439 15 -3854 15 -2117 0 -3850 -1 -3850 -2z"/>
</g>
</svg>
